<svg xmlns="http://www.w3.org/2000/svg" viewBox="0 0 764.19 120.63"><defs><style>.cls-1{font-size:115.2px;font-family:BerlinSansFBDemi-Bold, Berlin Sans FB Demi;font-weight:700;letter-spacing:0.05em;}.cls-1,.cls-2{fill:#fff;}</style></defs><g id="Layer_2" data-name="Layer 2"><g id="LOG_IN_PAGE" data-name="LOG IN PAGE"><g id="LOG_IN" data-name="LOG IN"><g id="chowllenge"><text class="cls-1" transform="translate(57.75 97.06)">Chowllenge</text><path class="cls-2" d="M32.1,77.5a4.12,4.12,0,0,0,2.18.11,5.66,5.66,0,0,0,3.56-2.2l.7.66c2.14,2,6.3,1.07,7.82-1.24A5.41,5.41,0,0,0,47,69.67a6.6,6.6,0,0,0,.52-2.23c0-.87,0-1.75,0-2.62a6,6,0,0,0-1.23-4,5.71,5.71,0,0,0-3.84-2,6.15,6.15,0,0,0-.85,0A14.69,14.69,0,0,0,41,56.93a5.4,5.4,0,0,0-8.73-1.85,5.51,5.51,0,0,0-2.21.49l-.61.27a4.3,4.3,0,0,0-1.72,1.28A4.3,4.3,0,0,0,26.51,59a4.13,4.13,0,0,0-.3,2.19,4.15,4.15,0,0,0,.44,2.09l.76,1.22a5.45,5.45,0,0,0,1.75,1.42,4.42,4.42,0,0,0-.87,1l-.71,1.32a5.46,5.46,0,0,0-.28,2.91c.17.65.34,1.31.52,2a4.21,4.21,0,0,0,.79,2A4.26,4.26,0,0,0,30,76.62,4.21,4.21,0,0,0,32.1,77.5Z"/><path class="cls-2" d="M7.1,58.1l.17.1a1.82,1.82,0,0,0,.85.28A2.33,2.33,0,0,0,9.75,58a2.27,2.27,0,0,0,.82-1.54A2.33,2.33,0,0,0,10.19,55a2.28,2.28,0,0,0,.91-4,14.88,14.88,0,0,0-3.44-1.81,2.21,2.21,0,0,0-1-.12l-.09-.07a2.82,2.82,0,0,0-2.67-.25,2.14,2.14,0,0,0-1.27,1.6H2.49l-.61.14a1.76,1.76,0,0,0-.8.32,1.69,1.69,0,0,0-.64.58,1.69,1.69,0,0,0-.36.82A1.75,1.75,0,0,0,0,53l.17.55a2.16,2.16,0,0,0,.72.89l.53.29a2.29,2.29,0,0,0,.49.11,2.1,2.1,0,0,0,.35,1.34,2.2,2.2,0,0,0,.89.82A2.32,2.32,0,0,0,7.1,58.1Z"/><path class="cls-2" d="M31.24,36.85l.27-.16s0,0,.06,0a4.16,4.16,0,0,0,4-.62c.18-.19.37-.38.55-.58a2.59,2.59,0,0,0,.19-.31A2.94,2.94,0,0,0,39.23,34a3.1,3.1,0,0,0-.68-4.26l-.11-.08a3.78,3.78,0,0,0,.17-.35c1.28-3.41-3.54-5.51-5.35-2.84a3,3,0,0,0-2.49.65L30.44,27a2.36,2.36,0,0,0-1.2-.17,2.68,2.68,0,0,0-2.07.94,2.23,2.23,0,0,0-.66,1l-.19.8a3.09,3.09,0,0,0,.06.86,1.54,1.54,0,0,0-.28.34,4.63,4.63,0,0,0-.68,1.8,3.91,3.91,0,0,0,0,1.08,4.44,4.44,0,0,0,1,2A4.09,4.09,0,0,0,31.24,36.85Z"/><path class="cls-2" d="M732.1,77.5a4.13,4.13,0,0,1-2.18.11,5.66,5.66,0,0,1-3.57-2.2l-.7.66c-2.14,2-6.29,1.07-7.82-1.24a5.38,5.38,0,0,1-.63-5.16,6.86,6.86,0,0,1-.53-2.23c0-.87,0-1.75,0-2.62a6.07,6.07,0,0,1,1.23-4,5.75,5.75,0,0,1,3.84-2,6.09,6.09,0,0,1,.85,0,13.26,13.26,0,0,1,.62-1.84,5.63,5.63,0,0,1,7.4-2.78,5.7,5.7,0,0,1,1.32.93,5.52,5.52,0,0,1,2.22.49l.6.27a4.3,4.3,0,0,1,1.72,1.28,5.08,5.08,0,0,1,1.52,4,4.27,4.27,0,0,1-.45,2.09l-.75,1.22A5.56,5.56,0,0,1,735,65.89a4.7,4.7,0,0,1,.87,1l.71,1.32a5.67,5.67,0,0,1,.28,2.91c-.18.65-.35,1.31-.52,2a4.23,4.23,0,0,1-.8,2,5,5,0,0,1-3.48,2.49Z"/><path class="cls-2" d="M757.09,58.1l-.17.1a1.79,1.79,0,0,1-.85.28,2.31,2.31,0,0,1-1.62-.5,2.24,2.24,0,0,1-.83-1.54A2.39,2.39,0,0,1,754,55a2.27,2.27,0,0,1-.9-4,14.81,14.81,0,0,1,3.43-1.81,2.23,2.23,0,0,1,1-.12l.1-.07a2.8,2.8,0,0,1,2.66-.25,2.14,2.14,0,0,1,1.27,1.6h.19l.6.14a2.5,2.5,0,0,1,1.45.9,1.67,1.67,0,0,1,.35.82,1.75,1.75,0,0,1,0,.88l-.17.55a2.26,2.26,0,0,1-.73.89l-.53.29a2.16,2.16,0,0,1-.49.11,2,2,0,0,1-.35,1.34A2.11,2.11,0,0,1,761,57,2.33,2.33,0,0,1,757.09,58.1Z"/><path class="cls-2" d="M733,36.85l-.26-.16-.06,0a4.37,4.37,0,0,1-2.12.21,4.48,4.48,0,0,1-1.91-.83l-.54-.58a2.59,2.59,0,0,1-.19-.31A2.93,2.93,0,0,1,725,34a3.1,3.1,0,0,1,.67-4.26l.11-.08c0-.12-.12-.22-.17-.35-1.28-3.41,3.55-5.51,5.35-2.84a3,3,0,0,1,2.49.65l.34-.12a2.33,2.33,0,0,1,1.19-.17,2.26,2.26,0,0,1,1.14.24,2.35,2.35,0,0,1,.94.7,2.23,2.23,0,0,1,.66,1l.18.8a3.09,3.09,0,0,1,0,.86,1.5,1.5,0,0,1,.27.34,4.63,4.63,0,0,1,.68,1.8,3.56,3.56,0,0,1,0,1.08,4.35,4.35,0,0,1-1,2A4.09,4.09,0,0,1,733,36.85Z"/></g></g></g></g></svg>