<svg xmlns="http://www.w3.org/2000/svg" viewBox="0 0 56.65 74.52"><defs><style>.cls-1{fill:none;}.cls-2{fill:#fff;}</style></defs><g id="Layer_2" data-name="Layer 2"><g id="LOG_IN_PAGE" data-name="LOG IN PAGE"><g id="LOG_IN" data-name="LOG IN"><g id="text_bars" data-name="text bars"><g id="password"><path class="cls-1" d="M28.33,7.52c-9.25,0-12.15,4.73-12.15,9.83V27.93H41V17.35C41,12.25,37.57,7.52,28.33,7.52Z"/><path class="cls-2" d="M50.34,27.93H48.61V17.35C48.61,7.78,40.06,0,28.33,0S8,7.78,8,17.35V27.93H6.31C2.82,27.93,0,30.29,0,33.21v36c0,2.92,2.82,5.28,6.31,5.28h44c3.49,0,6.31-2.36,6.31-5.28v-36C56.65,30.29,53.83,27.93,50.34,27.93ZM28.33,55a5.54,5.54,0,1,1,5.53-5.54A5.54,5.54,0,0,1,28.33,55ZM41,27.93H16.18V17.35c0-5.1,2.9-9.83,12.15-9.83S41,12.25,41,17.35Z"/></g></g></g></g></g></svg>