<svg xmlns="http://www.w3.org/2000/svg" viewBox="0 0 680 400"><defs><style>.cls-1{fill:none;}.cls-2{fill:#ff4d4d;}</style></defs><g id="Layer_2" data-name="Layer 2"><g id="SLOT_MACHINE_PAGE" data-name="SLOT MACHINE PAGE"><g id="intitial_card" data-name="intitial card"><rect id="back" class="cls-1" width="680" height="400"/><g id="chowllenge"><path class="cls-2" d="M155.33,217.51a3.09,3.09,0,0,1-.86,1.72q-7.53,9-20,9-12.78,0-20.73-8.73Q105.95,211,106,198.16q0-12.45,7.58-21.14a25.47,25.47,0,0,1,20.12-9.1q13.29,0,20.82,8.15a2.58,2.58,0,0,1,.82,1.6q0,.78-2.85,5.78c-1.9,3.33-3.09,5.21-3.58,5.62a1.14,1.14,0,0,1-.82.32,10.46,10.46,0,0,1-2-1.64,21.89,21.89,0,0,0-4.34-3.07,14.75,14.75,0,0,0-6.73-1.64,11.71,11.71,0,0,0-9.63,4.51A16.11,16.11,0,0,0,122,197.88a16.42,16.42,0,0,0,3.32,10.45,11.64,11.64,0,0,0,9.63,4.59,15.24,15.24,0,0,0,6.77-1.56,20.83,20.83,0,0,0,4.26-2.87,10.24,10.24,0,0,1,2-1.56,1.16,1.16,0,0,1,.82.45c.43.5,1.62,2.2,3.56,5.13S155.33,217.21,155.33,217.51Z"/><path class="cls-2" d="M204.74,197.06l-.08,28.27c0,1-.39,1.49-1.15,1.6s-2.87.17-6,.17a39.8,39.8,0,0,1-6.27-.33A1.56,1.56,0,0,1,189.9,225q0-3.52.12-10.62t.13-10.61q0-4.8-4.88-4.8a7.89,7.89,0,0,0-3.85,1.31c-1.61,1-2.42,2-2.42,3v10.12q0,2,.08,5.92c.06,2.64.08,4.61.08,5.92,0,1-.42,1.57-1.27,1.68s-3.22.17-7.13.17a24.7,24.7,0,0,1-4.83-.33c-1-.22-1.48-.7-1.48-1.44,0-2.15,0-5.4,0-9.73s0-7.57,0-9.73q0-13.41-.28-22.17-.12-3.07-.21-6.15a40.52,40.52,0,0,0-.74-6.11,3.89,3.89,0,0,1-.12-.78.82.82,0,0,1,.62-.82,16.79,16.79,0,0,1,3.73-.45c2.18-.08,3.45-.15,3.81-.2l7.41-.86c.44,0,.66.29.66.86,0,.87,0,2.06-.16,3.56-.11,1.75-.17,2.94-.17,3.57q-.24,9.27-.24,14.63c0,.55.13.82.41.82.05,0,.75-.48,2.09-1.43a28,28,0,0,1,4.55-2.67,15.47,15.47,0,0,1,6.27-1.43,13.85,13.85,0,0,1,8.77,2.74A9.67,9.67,0,0,1,204.74,197.06Z"/><path class="cls-2" d="M255.21,206.61q0,9.34-5.72,15.16t-15,5.82q-9,0-14.84-5.74t-5.81-14.75q0-9.51,5.57-15.43t15.08-5.92q9.25,0,15,5.8T255.21,206.61Zm-13.45,0a8.86,8.86,0,0,0-2-5.72,6.41,6.41,0,0,0-5.21-2.48,6.62,6.62,0,0,0-5.33,2.54,9.2,9.2,0,0,0,0,11.35,6.82,6.82,0,0,0,10.62,0A8.76,8.76,0,0,0,241.76,206.61Z"/><path class="cls-2" d="M323.34,198.08c0,4.26-.34,7.23-1,8.89a92.71,92.71,0,0,1-5.33,9.76q-4.35,7.34-6,9.1c-.73.79-2.54,1.19-5.41,1.19a24.21,24.21,0,0,1-4.5-.25,3.39,3.39,0,0,1-1.44-.82q-2.34-2.3-7.21-11.27-5.16,9.23-7.05,11.27Q284.4,227,280,227a20.09,20.09,0,0,1-4-.25q-2-.57-6.92-8.89a100,100,0,0,1-5.7-10.91c-.71-1.74-1.06-4.71-1.06-8.89,0-5.05.13-8.14.41-9.26a1.34,1.34,0,0,1,1.43-1.07c1.26,0,3.14.05,5.66.13s4.4.12,5.65.12c.63,0,.95.45.95,1.35s0,2-.09,3.63-.08,2.83-.08,3.63c0,3.3.08,5.75.25,7.33q.08.9,2.19,4.61c1.41,2.48,2.27,3.71,2.6,3.71.49,0,1.4-1.21,2.71-3.65a35.17,35.17,0,0,0,2.09-4.57c.33-1,.49-3.46.49-7.39,0-.82-.08-2-.23-3.67s-.22-2.83-.22-3.63.31-1.27.94-1.27,2.28,0,4.55,0l1.68,0-.14,0c-.07,0-.09,0-.07,0h1.36c1,0,2.55,0,4.55.08.6.08.9.51.9,1.27q0,1.56-.21,4.74c-.13,2.11-.2,3.69-.2,4.73a24.82,24.82,0,0,0,.33,5.29,38.1,38.1,0,0,0,2,4.46q1.85,3.69,2.59,3.69t2.74-3.73a18,18,0,0,0,2.05-4.67q.16-1.56.16-14.51c0-.95.28-1.43.82-1.43,1.26,0,3.15,0,5.68-.12s4.42-.13,5.68-.13a1.34,1.34,0,0,1,1.39,1.15C323.19,190,323.34,193.05,323.34,198.08Z"/><path class="cls-2" d="M347.33,202.1q0,11.19.09,17.17,0,.94.12,3.24c.08,1.39.12,2.47.12,3.23,0,.58-.34.92-1,1a44.21,44.21,0,0,1-6.64.33,35.15,35.15,0,0,1-6.27-.33,1.24,1.24,0,0,1-1-1.11V223.9q0-3.65.09-10.92t.08-10.88q0-17.22,0-15.7a127,127,0,0,0-1-15.61,4.65,4.65,0,0,1-.08-.7c0-.6.36-.9,1.07-.9H347.5c.68,0,1,.29.94.86l0,.74Q347.34,188.49,347.33,202.1Z"/><path class="cls-2" d="M374.12,202.1q0,11.19.08,17.17,0,.94.12,3.24c.08,1.39.12,2.47.12,3.23,0,.58-.34.92-1,1a44.21,44.21,0,0,1-6.64.33,35.15,35.15,0,0,1-6.27-.33,1.22,1.22,0,0,1-1-1.11V223.9c0-2.43,0-6.07.08-10.92s.08-8.48.08-10.88q0-17.22,0-15.7a129.26,129.26,0,0,0-1-15.61,3.79,3.79,0,0,1-.09-.7c0-.6.36-.9,1.07-.9h14.63c.68,0,1,.29.94.86l0,.74Q374.12,188.49,374.12,202.1Z"/><path class="cls-2" d="M423.52,204.52q0,4.14-2.66,4.71c-.31.05-3.13.35-8.49.9q-4.83.54-14.42,1.27a5.8,5.8,0,0,0,3.48,4.06,12.35,12.35,0,0,0,5.41,1.15,15.46,15.46,0,0,0,7.33-2l3.12-2c.57.28,1.54,1.67,2.89,4.18s2,4.11,2,4.8c0,.19-.21.5-.62.94q-5,5.37-15.53,5.37-9.75,0-15.74-5.7t-6.14-15.45q0-9.42,5.49-15.45,5.65-6.23,15-6.23A17.79,17.79,0,0,1,418,190.87,19.05,19.05,0,0,1,423.52,204.52ZM409.18,202a6.34,6.34,0,0,0-1.81-4.47,5.7,5.7,0,0,0-4.3-1.93,5.17,5.17,0,0,0-4.26,2.18,7.42,7.42,0,0,0-1.56,4.71c0,.74.38,1.1,1.15,1.1a71.51,71.51,0,0,0,9.42-.94C408.72,202.54,409.18,202.32,409.18,202Z"/><path class="cls-2" d="M473.13,225.58a1.17,1.17,0,0,1-1.15,1.27q-1.16.17-6,.17a47.24,47.24,0,0,1-6.4-.25,1.48,1.48,0,0,1-1.23-1.68c0-1.29.05-3.22.13-5.82s.12-4.55.12-5.86c0-1,0-2.52-.08-4.53s-.08-3.52-.08-4.53q0-5.61-4.88-5.61a7.09,7.09,0,0,0-3.73,1.39c-1.53,1-2.3,2.06-2.3,3.07v22.13a1.34,1.34,0,0,1-1.27,1.52c-.95.11-2.91.17-5.86.17a48,48,0,0,1-6.22-.25c-.85-.14-1.28-.59-1.28-1.35q0-3.19.05-9.63c0-4.29,0-7.52,0-9.68q0-10.2-1.6-16a2.61,2.61,0,0,1-.08-.61.91.91,0,0,1,.61-.91q2.58-.28,6.89-.9c4.34-.84,6.79-1.27,7.33-1.27.3,0,.53.92.7,2.77s.39,2.76.69,2.76c-.3,0,1.17-.94,4.41-2.84s6.07-2.85,8.5-2.85a14.69,14.69,0,0,1,8.69,2.46,9.16,9.16,0,0,1,3.9,7.87v13.07c0,1.78,0,4.43,0,8S473.13,223.8,473.13,225.58Z"/><path class="cls-2" d="M525.16,216.11q0,11.69-4.92,16.77-5.09,5.19-16.89,5.2A54.26,54.26,0,0,1,494,237c-5.06-.93-7.58-2-7.58-3.27,0-.52.58-3.2,1.76-8q.28-1.14.9-1.14a1.53,1.53,0,0,1,.45.16,26.57,26.57,0,0,0,11.68,3.11,12.87,12.87,0,0,0,5.86-1.47c2.35-1.18,3.53-2.65,3.53-4.43v-2.74a15.06,15.06,0,0,1-10.74,3.93,16.22,16.22,0,0,1-12.66-5.53,20.5,20.5,0,0,1-.21-26.11,16,16,0,0,1,12.54-5.37q6.18,0,9.47,4.43c.43.6.74.9.9.9s.37-.49.37-1.47c0-2.19.24-3.28.74-3.28s2.8.22,7.09.67,6.51.71,6.68.76a1,1,0,0,1,.69,1.07c0,1.88-.06,4.7-.18,8.44s-.19,6.56-.19,8.44c0,1.12,0,2.8,0,5S525.16,215,525.16,216.11ZM511,204.76a7.48,7.48,0,0,0-2-5.18,6.47,6.47,0,0,0-5-2.2,6.38,6.38,0,0,0-5,2.24,7.59,7.59,0,0,0-2,5.22,7.33,7.33,0,0,0,2,5.17,6.71,6.71,0,0,0,9.92,0A7.57,7.57,0,0,0,511,204.76Z"/><path class="cls-2" d="M574.15,204.52q0,4.14-2.66,4.71c-.31.05-3.13.35-8.49.9q-4.83.54-14.42,1.27a5.8,5.8,0,0,0,3.48,4.06,12.35,12.35,0,0,0,5.41,1.15,15.46,15.46,0,0,0,7.33-2l3.12-2c.57.28,1.54,1.67,2.89,4.18s2,4.11,2,4.8c0,.19-.21.5-.62.94q-5,5.37-15.53,5.37-9.75,0-15.74-5.7t-6.14-15.45q0-9.42,5.49-15.45,5.66-6.23,15-6.23a17.79,17.79,0,0,1,13.36,5.74A19.05,19.05,0,0,1,574.15,204.52ZM559.81,202a6.34,6.34,0,0,0-1.81-4.47,5.7,5.7,0,0,0-4.3-1.93,5.17,5.17,0,0,0-4.26,2.18,7.42,7.42,0,0,0-1.56,4.71c0,.74.38,1.1,1.15,1.1a71.51,71.51,0,0,0,9.42-.94C559.35,202.54,559.81,202.32,559.81,202Z"/><path class="cls-2" d="M85,212.52a3,3,0,0,0,1.59.08,4.06,4.06,0,0,0,2.59-1.6l.52.48c1.56,1.46,4.58.78,5.69-.9a4,4,0,0,0,.47-3.76,5.1,5.1,0,0,0,.38-1.63c0-.63,0-1.27,0-1.9a4.38,4.38,0,0,0-.9-2.94,4.12,4.12,0,0,0-2.79-1.49,4.24,4.24,0,0,0-.62,0,10,10,0,0,0-.45-1.34,4.12,4.12,0,0,0-5.4-2,4.38,4.38,0,0,0-1,.68,3.89,3.89,0,0,0-1.61.35l-.45.2a3.21,3.21,0,0,0-1.25.93,3.14,3.14,0,0,0-.88,1.35,4.63,4.63,0,0,0,.1,3.12c.19.29.37.59.55.89a4.28,4.28,0,0,0,1.28,1,3.5,3.5,0,0,0-.64.69l-.51,1a4.07,4.07,0,0,0-.21,2.13c.13.47.26,1,.38,1.42a3.16,3.16,0,0,0,.58,1.44,3,3,0,0,0,1,1.17A3,3,0,0,0,85,212.52Z"/><path class="cls-2" d="M66.8,198.39l.12.07a1.26,1.26,0,0,0,.62.2,1.64,1.64,0,0,0,1.79-1.48,1.76,1.76,0,0,0-.28-1.07,1.66,1.66,0,0,0,.66-2.94,11.28,11.28,0,0,0-2.5-1.32,1.65,1.65,0,0,0-.7-.08l-.07-.06a2.09,2.09,0,0,0-1.94-.18,1.57,1.57,0,0,0-.93,1.17h-.13l-.45.1a1.88,1.88,0,0,0-1.05.65,1.23,1.23,0,0,0-.25.6,1.26,1.26,0,0,0,0,.64l.13.4a1.59,1.59,0,0,0,.53.65l.38.21a1.55,1.55,0,0,0,.36.08,1.54,1.54,0,0,0,.25,1,1.71,1.71,0,0,0,.65.6A1.7,1.7,0,0,0,66.8,198.39Z"/><path class="cls-2" d="M84.39,182.9l.19-.11,0,0a3.27,3.27,0,0,0,1.55.15,3.16,3.16,0,0,0,1.39-.61l.39-.42a1.09,1.09,0,0,0,.14-.23,2.13,2.13,0,0,0,2.11-.86,2.25,2.25,0,0,0-.49-3.11l-.08-.06a1.92,1.92,0,0,0,.12-.25c.94-2.48-2.58-4-3.89-2.07a2.24,2.24,0,0,0-1.82.48l-.24-.09a1.73,1.73,0,0,0-.87-.13,1.71,1.71,0,0,0-.83.18,1.63,1.63,0,0,0-.68.51,1.56,1.56,0,0,0-.48.73l-.14.59a2.14,2.14,0,0,0,0,.62,2.43,2.43,0,0,0-.2.25,3.41,3.41,0,0,0-.49,1.31,2.61,2.61,0,0,0,0,.79,3.31,3.31,0,0,0,.7,1.49A3,3,0,0,0,84.39,182.9Z"/><path class="cls-2" d="M595,212.52a3,3,0,0,1-1.59.08,4.06,4.06,0,0,1-2.59-1.6l-.52.48c-1.56,1.46-4.58.78-5.69-.9a4,4,0,0,1-.47-3.76,5.1,5.1,0,0,1-.38-1.63c0-.63,0-1.27,0-1.9a4.38,4.38,0,0,1,.9-2.94,4.12,4.12,0,0,1,2.79-1.49,4.24,4.24,0,0,1,.62,0,10,10,0,0,1,.45-1.34,4.12,4.12,0,0,1,5.4-2,4.38,4.38,0,0,1,1,.68,3.89,3.89,0,0,1,1.61.35l.45.2a3.21,3.21,0,0,1,1.25.93,3.14,3.14,0,0,1,.88,1.35,4.63,4.63,0,0,1-.1,3.12c-.19.29-.37.59-.55.89a4.28,4.28,0,0,1-1.28,1,3.5,3.5,0,0,1,.64.69l.51,1a4.07,4.07,0,0,1,.21,2.13c-.13.47-.26,1-.38,1.42a3.16,3.16,0,0,1-.58,1.44,3,3,0,0,1-1,1.17A3,3,0,0,1,595,212.52Z"/><path class="cls-2" d="M613.2,198.39l-.12.07a1.26,1.26,0,0,1-.62.2,1.64,1.64,0,0,1-1.79-1.48,1.76,1.76,0,0,1,.28-1.07,1.66,1.66,0,0,1-.66-2.94,11.28,11.28,0,0,1,2.5-1.32,1.65,1.65,0,0,1,.7-.08l.07-.06a2.09,2.09,0,0,1,1.94-.18,1.57,1.57,0,0,1,.93,1.17h.13l.45.1a1.88,1.88,0,0,1,1,.65,1.23,1.23,0,0,1,.25.6,1.26,1.26,0,0,1,0,.64l-.13.4a1.59,1.59,0,0,1-.53.65l-.38.21a.69.69,0,0,0-.61,1.06,4.06,4.06,0,0,1-3.5,1.37Z"/><path class="cls-2" d="M595.61,182.9l-.19-.11a.05.05,0,0,0,0,0,3.27,3.27,0,0,1-1.55.15,3.16,3.16,0,0,1-1.39-.61l-.39-.42a1.09,1.09,0,0,1-.14-.23,2.13,2.13,0,0,1-2.11-.86,2.25,2.25,0,0,1,.49-3.11l.08-.06a1.92,1.92,0,0,1-.12-.25c-.94-2.48,2.58-4,3.89-2.07a2.24,2.24,0,0,1,1.82.48l.24-.09a1.73,1.73,0,0,1,.87-.13,1.71,1.71,0,0,1,.83.18,1.63,1.63,0,0,1,.68.51,1.56,1.56,0,0,1,.48.73l.14.59a2.14,2.14,0,0,1,0,.62,2.43,2.43,0,0,1,.2.25,3.41,3.41,0,0,1,.49,1.31,2.61,2.61,0,0,1,0,.79,3.31,3.31,0,0,1-.7,1.49A3,3,0,0,1,595.61,182.9Z"/></g></g></g></g></svg>