<svg xmlns="http://www.w3.org/2000/svg" viewBox="0 0 66.61 50.87"><defs><style>.cls-1{fill:#fff;}</style></defs><g id="Layer_2" data-name="Layer 2"><g id="LOG_IN_PAGE" data-name="LOG IN PAGE"><g id="LOG_IN" data-name="LOG IN"><g id="text_bars" data-name="text bars"><g id="email"><path class="cls-1" d="M59.9,0H6.71A6.72,6.72,0,0,0,0,6.71V44.16a6.71,6.71,0,0,0,6.71,6.71H59.9a6.7,6.7,0,0,0,6.71-6.71V6.71A6.71,6.71,0,0,0,59.9,0ZM58,12.36,35,27.92a3,3,0,0,1-1.68.52,3,3,0,0,1-1.67-.51L8.41,12.37a3,3,0,0,1,3.34-5L33.3,21.82,54.66,7.39a3,3,0,0,1,3.36,5Z"/></g></g></g></g></g></svg>