<svg xmlns="http://www.w3.org/2000/svg" viewBox="0 0 195.25 299.15"><defs><style>.cls-1{fill:none;stroke:#2155bf;stroke-linecap:round;stroke-linejoin:round;stroke-width:7px;}.cls-2{fill:#2155bf;}</style></defs><g id="Layer_2" data-name="Layer 2"><g id="SLOT_MACHINE_PAGE" data-name="SLOT MACHINE PAGE"><g id="wild_card" data-name="wild card"><path d="M26.24,62.62c-1.73-18.27-5.4-36.77-9-54.69v-1c0-1.72.12-3.56,2.53-3.56,1.49,0,4.25.23,4.25,2.42.58,4,3.68,23.55,4.37,27.69,2.18,12.75,3.33,25.5,5.28,38.14,1.5-4.94,6.21-26,6.9-30,.46-2.75,7.12-6.55,8-2.18l4.83,21.72c1.15,4.59,1.6,9.76,2.64,13.44,2-10.57,8.27-49.29,9.65-57.68.69-3.91.12-12.06,5.63-12.06,1.84,0,2.64,1.37,2.64,3a8,8,0,0,1-.11,1.73C69,36.88,63.69,63.88,60.59,91.8c-.57,1.5-1.72,3-3.33,3a3.5,3.5,0,0,1-2.64-1.38L44.73,49.64,36.69,88c-.57,3.22.12,6.9-4.13,6.9-1.73,0-2.42-.46-3.34-2.3Z"/><path d="M92.31,8.16c.8-2.3,1.37-2.41,3.79-2.41,3.33,0,3.33,1.49,3.33,4.82,0,.35-.12,1.84-.12,2.07L95.87,91.23c-.23,5.06-6.67,5.52-6.67,2.18Z"/><path d="M119.88,94.45c-.11,0-1.49-59.29-1.49-67.1,0-2.19-1.38-19.77-1.5-22V4.6a2.21,2.21,0,0,1,.81-2.07,12.15,12.15,0,0,1,2.18-.23c2.07,0,3-.12,3.68,2.41,1,4.48.57,7.24.69,11.72.57,23.44.8,47.22,2.18,70.89h.81c4.82,0,9.42-1.61,14.36-1.61,1.84,0,3.9.46,3.9,2.76A2.41,2.41,0,0,1,143.21,91Z"/><path d="M159.41,72.27c.11-9.88.11-55.84,0-65.61V6.2c0-2.52.92-5.17,3.33-6.2h1c4.59,0,9.42,1,12.86,4.14,12.3,11,14.6,30.79,13.91,46.42-.92,22.17-6.09,43.31-25.05,45.61-3.68.46-6.09-.11-6.09-4.37ZM166,50.1c0,10.22-.23,27.69,0,39.41,14.25-2.19,18.15-24.94,18.15-37.58,0-9.07-.57-44.58-16.54-44.58h-.81C166.53,13.79,166,43.78,166,50.1Z"/><path d="M40,127.12h.81c4.59.23,10.11,2.65,10.11,8.28,0,1.14-.35,2.52-1.95,2.52-3.8-.11-4.37-4.71-8.62-5.28a4.11,4.11,0,0,0-.69-.12c-15.74,0-26.54,72.16-.12,73.31h.58c8.27,0,5-10.69,11.6-10.69h.35a2.48,2.48,0,0,1,2.76,2.53c-.12,2.07-.69,2.07-1.73,4.48-2.64,5.63-6.66,8.51-12.87,8.51h-1c-22.18-1-23-31.72-21.49-46.65C18.19,152.86,23.13,127.12,40,127.12Z"/><path d="M80.93,190.55l-.69.69-1.95,13c-.23,1.72-.12,6.66-3.45,6.66-1.49,0-2.53-3-2.53-4.13,12-83.3,12.07-83.53,12.07-83.53.57-2.19,1.38-5.4,4.25-5.4a4.3,4.3,0,0,1,3.56,1.72l.92,2.41c6.66,26.31,9.76,53.32,12.87,80.43l.69,7.47c0,.12-.12.12-.12.23-.8,2.18-1.26,3.1-3.45,3.1h-.34c-.69,0-1.84,0-2-.8l-2.88-21.83Zm1.72-7.13,14.37.35-7.7-53.66Z"/><path d="M119.65,205.37c0-25.85.92-51.93,1.61-77.79.23-5.28,2.18-5.28,6.78-5.28h1.15c10.57,0,17.35,6.89,17.35,17v1.27c0,8.38-2.18,18.15-9.77,23.32a48.25,48.25,0,0,1,3.68,4.48c5.17,6.78,3.91,23.21,4.48,31.14,0,.69.69,6,.69,6.66v.92c0,2-1.84,2.19-3.33,2.19h-.12c-1.26,0-2.75,0-3.21-1.61-.12-3.79-1.15-21.37-1.38-25.28-.46-5.63-1.61-13.33-8.62-13.33h-1.84a65.56,65.56,0,0,0-.69,6.67c-.11,1-.69,26.54-.8,36.3,0,2.19.34,4.6-2.53,4.6a4.15,4.15,0,0,1-3.45-1.61Zm9-44.47c8.16,0,11.26-15.05,11.26-20.33s-2.52-12.3-9.07-12.3a2.69,2.69,0,0,0-2.87,3c.11,10-.81,18.38-.81,28.61C127.12,160.79,127.93,160.9,128.61,160.9Z"/><path d="M164,192.27c.11-9.88.11-55.84,0-65.61v-.46c0-2.52.91-5.17,3.33-6.2h1c4.6,0,9.42,1,12.87,4.14,12.29,11,14.59,30.79,13.9,46.42-.92,22.17-6.09,43.31-25,45.61-3.68.46-6.09-.11-6.09-4.37Zm6.54-22.17c0,10.22-.23,27.69,0,39.41,14.25-2.19,18.16-24.94,18.16-37.58,0-9.07-.58-44.58-16.55-44.58h-.8C171.13,133.79,170.55,163.78,170.55,170.1Z"/><g id="arrow_wild" data-name="arrow wild"><polyline class="cls-1" points="109.28 239.52 109.28 279.78 27.99 279.78"/><path class="cls-2" d="M30.89,260.7,1.08,277.92a2.15,2.15,0,0,0,0,3.73l29.81,17.21A2.15,2.15,0,0,0,34.12,297V262.57A2.16,2.16,0,0,0,30.89,260.7Z"/></g></g></g></g></svg>