<svg xmlns="http://www.w3.org/2000/svg" viewBox="0 0 764.19 96.3"><defs><style>.cls-1{fill:#fff;}</style></defs><g id="Layer_2" data-name="Layer 2"><g id="LOG_IN_PAGE" data-name="LOG IN PAGE"><g id="LOG_IN" data-name="LOG IN"><g id="chowllenge"><path class="cls-1" d="M128.62,68.06a4.26,4.26,0,0,1-1.18,2.37Q117.09,82.75,99.93,82.75q-17.55,0-28.46-12Q60.83,59.18,60.84,41.51q0-17.1,10.41-29Q82.1,0,98.87,0q18.22,0,28.57,11.19a3.54,3.54,0,0,1,1.13,2.2c0,.71-1.31,3.35-3.91,7.93s-4.25,7.14-4.92,7.71a1.55,1.55,0,0,1-1.13.45,15,15,0,0,1-2.81-2.25,30,30,0,0,0-6-4.22,20.21,20.21,0,0,0-9.23-2.25,16.08,16.08,0,0,0-13.22,6.18,22.1,22.1,0,0,0-4.56,14.18,22.46,22.46,0,0,0,4.56,14.34,15.94,15.94,0,0,0,13.22,6.3,21,21,0,0,0,9.28-2.13,28.75,28.75,0,0,0,5.85-3.94,14,14,0,0,1,2.76-2.14,1.57,1.57,0,0,1,1.12.62q.9,1,4.9,7Q128.62,67.44,128.62,68.06Z"/><path class="cls-1" d="M196.43,40l-.11,38.81c0,1.31-.52,2-1.57,2.19s-3.94.23-8.22.23a54.78,54.78,0,0,1-8.6-.45,2.15,2.15,0,0,1-1.86-2.42q0-4.85.17-14.57t.17-14.57q0-6.59-6.7-6.58a10.75,10.75,0,0,0-5.28,1.8c-2.22,1.31-3.32,2.68-3.32,4.11V62.44q0,2.7.11,8.13c.08,3.62.11,6.33.11,8.13,0,1.38-.58,2.15-1.74,2.3s-4.43.23-9.79.23a34.31,34.31,0,0,1-6.64-.45c-1.35-.3-2-1-2-2q0-4.44.06-13.36t.05-13.36q0-18.39-.39-30.43c-.11-2.82-.21-5.63-.28-8.44a57.46,57.46,0,0,0-1-8.38,5.46,5.46,0,0,1-.16-1.07,1.11,1.11,0,0,1,.84-1.13A22.91,22.91,0,0,1,145.36,2c3-.11,4.74-.2,5.23-.28L160.77.56c.6,0,.9.4.9,1.18,0,1.2-.07,2.84-.22,4.9-.15,2.4-.23,4-.23,4.89q-.33,12.72-.34,20.08c0,.75.19,1.13.57,1.13.07,0,1-.66,2.87-2a37.84,37.84,0,0,1,6.24-3.66,21.22,21.22,0,0,1,8.61-2,19,19,0,0,1,12,3.77A13.26,13.26,0,0,1,196.43,40Z"/><path class="cls-1" d="M265.71,53.1q0,12.82-7.85,20.82t-20.61,8q-12.39,0-20.37-7.87t-8-20.25q0-13.05,7.65-21.18t20.71-8.13q12.7,0,20.58,8T265.71,53.1Zm-18.45,0a12.12,12.12,0,0,0-2.76-7.85,8.79,8.79,0,0,0-7.14-3.4,9,9,0,0,0-7.31,3.49,11.77,11.77,0,0,0-2.7,7.76,11.86,11.86,0,0,0,2.7,7.82,9.34,9.34,0,0,0,14.56,0A12,12,0,0,0,247.26,53.1Z"/><path class="cls-1" d="M359.23,41.4q0,8.77-1.41,12.21A123,123,0,0,1,350.51,67q-6,10.06-8.21,12.48c-1,1.09-3.49,1.64-7.43,1.64a33.59,33.59,0,0,1-6.19-.34,4.54,4.54,0,0,1-2-1.13q-3.19-3.15-9.9-15.47-7.08,12.66-9.67,15.47-1.35,1.47-7.37,1.47a27.35,27.35,0,0,1-5.51-.34q-2.82-.8-9.51-12.21a136.81,136.81,0,0,1-7.82-15q-1.46-3.6-1.46-12.21,0-10.41.56-12.71a1.83,1.83,0,0,1,2-1.46q2.58,0,7.76.16c3.45.12,6,.17,7.77.17q1.29,0,1.29,1.86c0,1.09,0,2.75-.11,5s-.12,3.89-.12,5c0,4.53.12,7.89.34,10.07q.12,1.23,3,6.32c1.93,3.4,3.12,5.09,3.57,5.09.68,0,1.92-1.66,3.72-5a47.59,47.59,0,0,0,2.86-6.27q.68-2.06.68-10.16c0-1.12-.1-2.8-.31-5s-.31-3.89-.31-5,.43-1.74,1.29-1.74c1.05,0,3.14,0,6.25-.06l2.31-.06-.2,0c-.1,0-.12,0-.09,0h1.86c1.42,0,3.51,0,6.24.12.83.11,1.24.69,1.24,1.74,0,1.43-.09,3.59-.28,6.5s-.28,5.07-.28,6.49a34.23,34.23,0,0,0,.45,7.26,51.29,51.29,0,0,0,2.7,6.13c1.69,3.38,2.87,5.06,3.54,5.06s1.93-1.7,3.77-5.11,2.7-5.4,2.81-6.42q.23-2.13.23-19.91c0-1.31.37-2,1.12-2q2.59,0,7.8-.17t7.79-.17a1.83,1.83,0,0,1,1.91,1.58Q359.23,31,359.23,41.4Z"/><path class="cls-1" d="M392.16,46.91q0,15.36.12,23.57c0,.87.05,2.35.16,4.45.12,1.91.17,3.39.17,4.44,0,.79-.47,1.26-1.4,1.41a61.2,61.2,0,0,1-9.12.45,48.52,48.52,0,0,1-8.6-.45,1.68,1.68,0,0,1-1.41-1.52V76.84q0-5,.11-15t.12-14.94q0-23.62.05-21.54A178.29,178.29,0,0,0,371,3.94a5.36,5.36,0,0,1-.12-1c0-.82.49-1.24,1.47-1.24h20.08c.94,0,1.37.4,1.29,1.18l-.05,1Q392.16,28.24,392.16,46.91Z"/><path class="cls-1" d="M428.92,46.91q0,15.36.12,23.57c0,.87,0,2.35.17,4.45.11,1.91.16,3.39.16,4.44,0,.79-.46,1.26-1.4,1.41a61.13,61.13,0,0,1-9.11.45,48.58,48.58,0,0,1-8.61-.45,1.69,1.69,0,0,1-1.41-1.52V76.84q0-5,.12-15t.11-14.94q0-23.62.05-21.54a178.29,178.29,0,0,0-1.4-21.43,5.36,5.36,0,0,1-.12-1c0-.82.49-1.24,1.47-1.24h20.08c.94,0,1.37.4,1.29,1.18l-.05,1Q428.92,28.24,428.92,46.91Z"/><path class="cls-1" d="M496.74,50.23q0,5.69-3.66,6.47-.61.12-11.65,1.24-6.63.73-19.8,1.74a8,8,0,0,0,4.79,5.57,16.82,16.82,0,0,0,7.42,1.58,21.26,21.26,0,0,0,10.07-2.7l4.27-2.7q1.19.55,4,5.74c1.86,3.45,2.78,5.64,2.78,6.58q0,.39-.84,1.29-6.85,7.36-21.32,7.37-13.38,0-21.6-7.82-8.43-7.94-8.44-21.21,0-12.93,7.54-21.2,7.77-8.55,20.59-8.55A24.44,24.44,0,0,1,489.2,31.5,26.19,26.19,0,0,1,496.74,50.23ZM477.05,46.8a8.7,8.7,0,0,0-2.48-6.13,7.82,7.82,0,0,0-5.9-2.64,7.07,7.07,0,0,0-5.85,3,10.22,10.22,0,0,0-2.14,6.47A1.37,1.37,0,0,0,462.25,49a99.47,99.47,0,0,0,12.94-1.3Q477.05,47.41,477.05,46.8Z"/><path class="cls-1" d="M564.83,79.15a1.61,1.61,0,0,1-1.58,1.74c-1,.15-3.78.23-8.21.23a64.82,64.82,0,0,1-8.77-.34,2,2,0,0,1-1.69-2.31c0-1.76,0-4.42.17-8s.17-6.24.17-8q0-2.09-.12-6.22T544.69,50q0-7.71-6.69-7.71a9.79,9.79,0,0,0-5.12,1.91q-3.15,2.15-3.15,4.22V78.81A1.84,1.84,0,0,1,528,80.89q-2,.23-8,.23a66.23,66.23,0,0,1-8.55-.34,1.77,1.77,0,0,1-1.74-1.86q0-4.38.05-13.22t.06-13.27q0-14-2.2-22a4.4,4.4,0,0,1-.11-.84,1.24,1.24,0,0,1,.85-1.24q3.54-.39,9.45-1.24,8.94-1.74,10.06-1.74c.42,0,.74,1.27,1,3.8s.54,3.79,1,3.79c-.42,0,1.6-1.3,6-3.91s8.34-3.91,11.68-3.91a20.17,20.17,0,0,1,11.92,3.38,12.61,12.61,0,0,1,5.35,10.8V57.26c0,2.44,0,6.09,0,10.95S564.83,76.71,564.83,79.15Z"/><path class="cls-1" d="M636.24,66.15q0,16-6.75,23-7,7.14-23.18,7.14a74,74,0,0,1-12.88-1.52Q583,92.88,583,90.28q0-1.07,2.41-11c.27-1.05.68-1.58,1.24-1.58a2.64,2.64,0,0,1,.62.23q8.67,4.28,16,4.27a17.67,17.67,0,0,0,8-2q4.83-2.41,4.83-6.08V70.31q-5.73,5.41-14.73,5.41a22.34,22.34,0,0,1-17.39-7.6,25.94,25.94,0,0,1-6.58-18q0-10.74,6.3-17.83,6.59-7.37,17.22-7.37,8.49,0,13,6.07c.6.83,1,1.24,1.24,1.24s.5-.67.5-2q0-4.5,1-4.5t9.73.93c5.89.61,8.94,1,9.17,1a1.39,1.39,0,0,1,1,1.46q0,3.88-.25,11.59c-.17,5.13-.25,9-.25,11.58q0,2.31,0,6.92T636.24,66.15ZM616.78,50.57a10.25,10.25,0,0,0-2.73-7.12,9.22,9.22,0,0,0-13.67.06,10.46,10.46,0,0,0-2.73,7.17,10,10,0,0,0,2.79,7.09,8.89,8.89,0,0,0,6.77,3,8.8,8.8,0,0,0,6.84-3A10.32,10.32,0,0,0,616.78,50.57Z"/><path class="cls-1" d="M703.49,50.23q0,5.69-3.66,6.47-.62.12-11.64,1.24-6.65.73-19.8,1.74a8,8,0,0,0,4.78,5.57,16.85,16.85,0,0,0,7.42,1.58,21.23,21.23,0,0,0,10.07-2.7l4.28-2.7q1.18.55,4,5.74t2.79,6.58c0,.26-.28.69-.85,1.29q-6.86,7.36-21.31,7.37-13.39,0-21.61-7.82-8.43-7.94-8.43-21.21,0-12.93,7.53-21.2,7.77-8.55,20.59-8.55A24.42,24.42,0,0,1,696,31.5,26.15,26.15,0,0,1,703.49,50.23ZM683.8,46.8a8.69,8.69,0,0,0-2.47-6.13A7.84,7.84,0,0,0,675.42,38a7.1,7.1,0,0,0-5.85,3,10.22,10.22,0,0,0-2.14,6.47A1.37,1.37,0,0,0,669,49a99.51,99.51,0,0,0,12.93-1.3Q683.8,47.41,683.8,46.8Z"/><path class="cls-1" d="M32.1,61.22a4.12,4.12,0,0,0,2.18.11,5.65,5.65,0,0,0,3.56-2.19c.24.21.47.43.7.65,2.14,2,6.3,1.07,7.82-1.24A5.41,5.41,0,0,0,47,53.39a6.55,6.55,0,0,0,.52-2.23c0-.87,0-1.75,0-2.62a6,6,0,0,0-1.23-4,5.71,5.71,0,0,0-3.84-2,6.15,6.15,0,0,0-.85,0A14.54,14.54,0,0,0,41,40.66a5.65,5.65,0,0,0-7.41-2.79,6,6,0,0,0-1.32.93,5.51,5.51,0,0,0-2.21.49l-.61.27a4.3,4.3,0,0,0-1.72,1.28,4.3,4.3,0,0,0-1.21,1.85,4.13,4.13,0,0,0-.3,2.19A4.13,4.13,0,0,0,26.65,47l.76,1.22a5.45,5.45,0,0,0,1.75,1.42,4.42,4.42,0,0,0-.87,1l-.71,1.32a5.46,5.46,0,0,0-.28,2.91c.17.66.34,1.31.52,2a4.29,4.29,0,0,0,.79,2,5.05,5.05,0,0,0,3.49,2.48Z"/><path class="cls-1" d="M7.1,41.82l.17.1a1.72,1.72,0,0,0,.85.28,2.26,2.26,0,0,0,2.45-2,2.34,2.34,0,0,0-.38-1.47,2.28,2.28,0,0,0,.91-4,15.27,15.27,0,0,0-3.44-1.81,2.38,2.38,0,0,0-1-.12l-.09-.07a2.82,2.82,0,0,0-2.67-.25A2.15,2.15,0,0,0,2.67,34H2.49l-.61.14a1.76,1.76,0,0,0-.8.32,1.78,1.78,0,0,0-.64.58,1.69,1.69,0,0,0-.36.82,1.75,1.75,0,0,0,0,.88l.17.55a2.16,2.16,0,0,0,.72.89l.53.29A2.29,2.29,0,0,0,2,38.6a2.1,2.1,0,0,0,.35,1.34,2.29,2.29,0,0,0,.89.83A2.33,2.33,0,0,0,7.1,41.82Z"/><path class="cls-1" d="M31.24,20.57l.27-.16.06,0a4.47,4.47,0,0,0,2.12.21,4.41,4.41,0,0,0,1.9-.84l.55-.57a2.69,2.69,0,0,0,.19-.32,2.94,2.94,0,0,0,2.9-1.19,3.1,3.1,0,0,0-.68-4.26l-.11-.08a2.85,2.85,0,0,0,.17-.35c1.28-3.41-3.54-5.5-5.35-2.84a3.09,3.09,0,0,0-2.49.65l-.33-.12a2.36,2.36,0,0,0-1.2-.17,2.31,2.31,0,0,0-1.14.25,2.21,2.21,0,0,0-.93.69,2.28,2.28,0,0,0-.66,1l-.19.8a3.09,3.09,0,0,0,.06.86,1.81,1.81,0,0,0-.28.34,4.63,4.63,0,0,0-.68,1.8,3.91,3.91,0,0,0,0,1.08,4.44,4.44,0,0,0,1,2A4.09,4.09,0,0,0,31.24,20.57Z"/><path class="cls-1" d="M732.1,61.22a4.13,4.13,0,0,1-2.18.11,5.65,5.65,0,0,1-3.57-2.19l-.7.65c-2.14,2-6.29,1.07-7.82-1.24a5.38,5.38,0,0,1-.63-5.16,6.8,6.8,0,0,1-.53-2.23c0-.87,0-1.75,0-2.62a6.07,6.07,0,0,1,1.23-4,5.75,5.75,0,0,1,3.84-2,6.09,6.09,0,0,1,.85,0,13.14,13.14,0,0,1,.62-1.83,5.63,5.63,0,0,1,7.4-2.79,6,6,0,0,1,1.32.93,5.52,5.52,0,0,1,2.22.49l.6.27a4.3,4.3,0,0,1,1.72,1.28,5.08,5.08,0,0,1,1.52,4,4.25,4.25,0,0,1-.45,2.09l-.75,1.22A5.56,5.56,0,0,1,735,49.61a4.7,4.7,0,0,1,.87,1l.71,1.32a5.67,5.67,0,0,1,.28,2.91c-.18.66-.35,1.31-.52,2a4.31,4.31,0,0,1-.8,2,5.06,5.06,0,0,1-3.48,2.48Z"/><path class="cls-1" d="M757.09,41.82l-.17.1a1.69,1.69,0,0,1-.85.28,2.27,2.27,0,0,1-2.45-2,2.41,2.41,0,0,1,.38-1.47,2.27,2.27,0,0,1-.9-4,15.2,15.2,0,0,1,3.43-1.81,2.4,2.4,0,0,1,1-.12l.1-.07a2.8,2.8,0,0,1,2.66-.25,2.15,2.15,0,0,1,1.27,1.6h.19l.6.14a1.71,1.71,0,0,1,.8.32,1.81,1.81,0,0,1,.65.58,1.67,1.67,0,0,1,.35.82,1.75,1.75,0,0,1,0,.88l-.17.55a2.26,2.26,0,0,1-.73.89l-.53.29a2.16,2.16,0,0,1-.49.11,2,2,0,0,1-.35,1.34,2.2,2.2,0,0,1-.88.83A2.33,2.33,0,0,1,757.09,41.82Z"/><path class="cls-1" d="M733,20.57l-.26-.16-.06,0a4.15,4.15,0,0,1-4-.63l-.54-.57a2.69,2.69,0,0,1-.19-.32,2.93,2.93,0,0,1-2.9-1.19,3.1,3.1,0,0,1,.67-4.26l.11-.08c0-.11-.12-.22-.17-.35-1.28-3.41,3.55-5.5,5.35-2.84a3.08,3.08,0,0,1,2.49.65l.34-.12a2.33,2.33,0,0,1,1.19-.17,2.26,2.26,0,0,1,1.14.25,2.24,2.24,0,0,1,.94.69,2.28,2.28,0,0,1,.66,1l.18.8a3.09,3.09,0,0,1,0,.86,1.76,1.76,0,0,1,.27.34,4.63,4.63,0,0,1,.68,1.8,3.56,3.56,0,0,1,0,1.08,4.35,4.35,0,0,1-1,2A4.09,4.09,0,0,1,733,20.57Z"/></g></g></g></g></svg>